<?xml version="1.0" encoding="utf-8"?>
<!-- Generator: Adobe Illustrator 24.1.1, SVG Export Plug-In . SVG Version: 6.00 Build 0)  -->
<svg version="1.1" id="Layer_1" xmlns="http://www.w3.org/2000/svg" xmlns:xlink="http://www.w3.org/1999/xlink" x="0px" y="0px"
	 viewBox="0 0 16 16" style="enable-background:new 0 0 16 16;" xml:space="preserve">
<style type="text/css">
	.st0{fill-rule:evenodd;clip-rule:evenodd;fill:#FFFFFF;}
</style>
<path class="st0" d="M16.4-0.4c0.5,0.5,0.5,1.3,0,1.8l-15,15c-0.5,0.5-1.3,0.5-1.8,0c-0.5-0.5-0.5-1.3,0-1.8l1.7-1.7
	C-1.1,10.8-2,8-2,8l0,0c0.2-0.5,2.8-7.5,10-7.5c1.8,0,3.4,0.4,4.6,1.1l2-2C15.1-0.9,15.9-0.9,16.4-0.4z M16.4,5C17.5,6.6,18,8,18,8
	s-2.5,7.5-10,7.5c-0.7,0-1.4-0.1-2-0.2L8.3,13c2.6-0.1,4.4-1.4,5.6-2.8c0.6-0.8,1.1-1.5,1.4-2.1l0-0.1l0-0.1
	c-0.2-0.3-0.4-0.8-0.7-1.2L16.4,5z M8,3C5.2,3,3.3,4.4,2.1,5.9C1.5,6.6,1,7.4,0.7,7.9l0,0.1l0,0.1C1,8.6,1.5,9.4,2.1,10.1
	c0.3,0.3,0.6,0.7,1,1l1.5-1.5C4.4,9.1,4.3,8.6,4.3,8c0-2.1,1.7-3.7,3.8-3.7c0.6,0,1.1,0.1,1.6,0.4l1.1-1.1C9.9,3.2,9,3,8,3z"/>
</svg>
