<?xml version="1.0" encoding="utf-8"?>
<!-- Generator: Adobe Illustrator 24.1.1, SVG Export Plug-In . SVG Version: 6.00 Build 0)  -->
<svg version="1.1" id="Layer_1" xmlns="http://www.w3.org/2000/svg" xmlns:xlink="http://www.w3.org/1999/xlink" x="0px" y="0px"
	 viewBox="0 0 16 16" style="enable-background:new 0 0 16 16;" xml:space="preserve">
<style type="text/css">
	.st0{fill:#FFFFFF;}
</style>
<path class="st0" d="M8,0.5C15.5,0.5,18,8,18,8s-2.5,7.5-10,7.5S-2,8-2,8S0.5,0.5,8,0.5z M8,3C5.2,3,3.3,4.4,2.1,5.9
	C1.5,6.6,1,7.4,0.7,7.9l0,0.1l0,0.1C1,8.6,1.5,9.4,2.1,10.1C3.3,11.6,5.2,13,8,13c2.8,0,4.7-1.4,5.9-2.9c0.6-0.8,1.1-1.5,1.4-2.1
	l0-0.1l0-0.1c-0.3-0.6-0.7-1.3-1.4-2.1C12.7,4.4,10.8,3,8,3z M8,4.3c0.4,0,0.8,0.1,1.1,0.2C8.5,4.7,8,5.4,8,6.1C8,7.2,8.8,8,9.9,8
	c0.8,0,1.4-0.5,1.7-1.1c0.1,0.3,0.2,0.7,0.2,1.1c0,2.1-1.7,3.8-3.8,3.8S4.3,10.1,4.3,8S5.9,4.3,8,4.3z"/>
</svg>
