<svg id="Capa_1" data-name="Capa 1" xmlns="http://www.w3.org/2000/svg" viewBox="0 0 24.01 24.1"><defs><style>.cls-1{fill:#fff;}</style></defs><path class="cls-1" d="M19.65,24a.73.73,0,0,1-.52-.21l-.19-.18H17.23A1.18,1.18,0,0,1,16,22.5v-.91h-.87A1.15,1.15,0,0,1,14,20.45v-.91h-.87A1.14,1.14,0,0,1,12,18.41h0l-.06-1.82c-.15-.16-.43-.42-.72-.7a2,2,0,0,1-1,.26,1.91,1.91,0,0,1-1.36-.55h0l-.12-.13a6.61,6.61,0,0,1-.89,0,7.71,7.71,0,0,1-5.47-2.28,7.76,7.76,0,0,1,11-11A7.77,7.77,0,0,1,15.48,9a2.07,2.07,0,0,1,.32,1,2,2,0,0,1-.19.91l8.24,8.28a.75.75,0,0,1,.21.51l.06,2.08a2,2,0,0,1-1.9,2.05l-2.43.07Zm-.42-1.9a.78.78,0,0,1,.53.21l.18.19,2.11-.07A.47.47,0,0,0,22.5,22v0l-.05-1.78L14.1,11.76a.68.68,0,0,1-.21-.42v-.19a.7.7,0,0,1,.19-.62.53.53,0,0,0,.13-.36.47.47,0,0,0-.15-.35.74.74,0,0,1-.2-.69A6.24,6.24,0,0,0,3.37,3.36h0a6.28,6.28,0,0,0,0,8.86,6.13,6.13,0,0,0,4.4,1.84A5.93,5.93,0,0,0,9,14a.77.77,0,0,1,.81.39c0,.08,0,.31.39.37a.39.39,0,0,0,.34-.1l.1-.11a.74.74,0,0,1,.52-.25.68.68,0,0,1,.54.19s.38.33.74.67c.8.75,1,.92,1,1.28v1.74h1.27a.69.69,0,0,1,.53.2.77.77,0,0,1,.24.53v1.33H16.7a.69.69,0,0,1,.53.2.77.77,0,0,1,.24.53v1.33l1.67-.05Z" transform="translate(-0.11 0.07)"/><path class="cls-1" d="M6.37,9a2.63,2.63,0,1,1,1.86-4.5h0A2.64,2.64,0,0,1,6.37,9Zm0-3.77a1.07,1.07,0,0,0-.79.33,1.13,1.13,0,0,0,0,1.6h0a1.11,1.11,0,0,0,.79.33,1.14,1.14,0,0,0,.8-1.94,1.09,1.09,0,0,0-.8-.32Z" transform="translate(-0.11 0.07)"/><path class="cls-1" d="M20.38,21.23a.75.75,0,0,1-.53-.22L13.2,14.32a.75.75,0,0,1,1.06-1.06L20.91,20a.75.75,0,0,1-.53,1.28Z" transform="translate(-0.11 0.07)"/></svg>